<svg width="166" height="170" viewBox="0 0 166 170" fill="none" xmlns="http://www.w3.org/2000/svg">
<path d="M153.87 111.409H159.694V158H153.87V152.176H148.046V146.352H153.87V134.705H148.046V128.881H153.87V111.409ZM148.046 152.176V158H136.398V152.176H148.046ZM136.398 152.176H130.575V128.881H136.398V152.176ZM148.046 128.881H136.398V123.057H148.046V128.881Z" fill="#A9A510"/>
<path d="M89.1442 123.057H94.968V128.881H100.792V134.705H94.968V146.352H100.792V152.176H94.968V169.648H89.1442V123.057ZM100.792 123.057H112.44V128.881H100.792V123.057ZM112.44 128.881H118.263V152.176H112.44V128.881ZM100.792 152.176H112.44V158H100.792V152.176Z" fill="#A9A510"/>
<path d="M53.5376 123.057H71.0092V128.881H53.5376V123.057ZM47.7137 128.881H53.5376V152.176H47.7137V128.881ZM53.5376 152.176H71.0092V158H53.5376V152.176ZM71.0092 128.881H76.8331V134.705H71.0092V128.881ZM71.0092 146.352H76.8331V152.176H71.0092V146.352Z" fill="#A9A510"/>
<path d="M6.28333 123.057H17.9311V128.881H12.1072V158H6.28333V123.057ZM17.9311 128.881H23.7549V158H17.9311V128.881ZM29.5788 128.881H23.7549V123.057H29.5788V128.881ZM29.5788 128.881H35.4026V158H29.5788V128.881Z" fill="#A9A510"/>
<path d="M138 15L125.568 95L42 95L54.4317 15L138 15Z" fill="#4B4A0B"/>
<path d="M133 9.99998L120.568 90L37 90L49.4317 10L133 9.99998Z" fill="#73710F"/>
<path d="M128 4.99998L115.568 85L32 85L44.4317 5L128 4.99998Z" fill="#9F9B06"/>
<path d="M123 0L110.568 80L27 80L39.4317 1.22621e-05L123 0Z" fill="#E5E013"/>
<path d="M77.4181 38.0865C78.0281 31.7368 78.6169 25.387 79.1843 19.0373C77.1746 25.387 75.1412 31.7368 73.0841 38.0865C65.6788 38.6901 58.264 39.2936 50.8397 39.8971C58.0323 40.5057 65.2225 41.1118 72.4103 41.7153C71.8381 47.8175 71.3108 53.9248 70.8285 60.0373C72.6917 53.9248 74.6021 47.8175 76.5598 41.7153C83.9794 41.1118 91.406 40.5057 98.8397 39.8971C91.6945 39.2936 84.5539 38.6901 77.4181 38.0865Z" fill="black"/>
</svg>
