<svg width="111" height="95" viewBox="0 0 111 95" fill="none" xmlns="http://www.w3.org/2000/svg">
<path d="M111 15L98.5683 95L15 95L27.4317 15L111 15Z" fill="#4B4A0B"/>
<path d="M106 10L93.5683 90L10 90L22.4317 10L106 10Z" fill="#73710F"/>
<path d="M101 4.99998L88.5683 85L5 85L17.4317 5L101 4.99998Z" fill="#9F9B06"/>
<path d="M96 0L83.5683 80L-1.48507e-07 80L12.4317 1.22621e-05L96 0Z" fill="#E5E013"/>
<path d="M50.418 38.0865C51.028 31.7368 51.6168 25.387 52.1842 19.0373C50.1745 25.387 48.1411 31.7368 46.084 38.0865C38.6787 38.6901 31.2639 39.2936 23.8396 39.8971C31.0322 40.5057 38.2223 41.1118 45.4102 41.7153C44.838 47.8175 44.3107 53.9248 43.8284 60.0373C45.6915 53.9248 47.602 47.8175 49.5597 41.7153C56.9793 41.1118 64.4059 40.5057 71.8396 39.8971C64.6943 39.2936 57.5538 38.6901 50.418 38.0865Z" fill="black"/>
</svg>
